<svg version="1.1" xmlns="http://www.w3.org/2000/svg" xmlns:xlink="http://www.w3.org/1999/xlink" x="0px" y="0px" viewBox="0 0 1000 1000" enable-background="new 0 0 1000 1000" xml:space="preserve">
<g><path d="M985.9,987.9C868,918.8,744.1,854.8,609.7,825.1c-0.6-68.1,7.9-142.9-37.5-200c-23.6-40.4-83.1-59-119.4-24.1c-60,55.4-70.1,146.9-54.1,223.2C258.9,849.9,135,923.2,10,986.8c108.1-204.7,225.4-404.8,328-612.5c14.5-30.7,28-74.8,61.7-33.3c19.7,13.1,81.4,52,80.9,40.3c-30.1-32.8-97-61.9-93.9-106.5c39.7-87.3,74-177.9,113.3-264.8C537,83.6,565,162.3,600.9,237c84.8,181.1,181.2,356.5,273.2,533.9c-30-11.9-94.2-46-102.1-36.5c47.8,32.4,99.3,62.2,138.8,104.6c28.5,47.7,55.4,96.8,79.2,147l-0.1,4.3L985.9,987.9L985.9,987.9L985.9,987.9z"/></g>
</svg>