<?xml version="1.0" encoding="utf-8"?>
<!-- Generator: Adobe Illustrator 24.1.1, SVG Export Plug-In . SVG Version: 6.00 Build 0)  -->
<svg version="1.1" id="Layer_1" xmlns="http://www.w3.org/2000/svg" xmlns:xlink="http://www.w3.org/1999/xlink" x="0px" y="0px"
	 viewBox="0 0 512 512" style="enable-background:new 0 0 512 512;" xml:space="preserve">
<g>
	<path d="M506.2,12.6c27.1,27.1-48.1,146.3-60.9,159.1c-12.7,12.7-45,1-72.2-26.2c-27.1-27.1-38.8-59.4-26.1-72.1
		C359.7,60.7,479-14.6,506.2,12.6L506.2,12.6z M125.6,41.3C84.1,17.8,25.2-8.4,6.4,10.3c-19,19,8.1,79.3,31.8,120.8
		C59.4,94.4,89.5,63.4,125.6,41.3z M464.7,162.3c3.8,12.9,3.2,23.6-3.1,29.8c-14.4,14.5-53.5-0.9-88.7-34.4
		c-2.5-2.3-4.9-4.5-7.2-6.9c-12.7-12.7-22.7-26.2-29-38.7c-12.3-22.1-15.4-41.6-6.1-50.9c5.1-5.1,13.2-6.5,23.1-4.7
		c6.5-4.1,14.1-8.7,22.5-13.3c-35.2-18.3-74.2-27.8-113.7-27.8c-136.1,0-246.3,110.3-246.3,246.3c0,136.1,110.2,246.4,246.3,246.4
		c136.1,0,246.4-110.3,246.4-246.4c0-43.9-11.6-85.1-31.7-120.8C473.3,148.1,469.1,155.2,464.7,162.3L464.7,162.3z"/>
</g>
</svg>
