<?xml version="1.0" encoding="UTF-8" standalone="no"?>
<!-- Created with Inkscape (http://www.inkscape.org/) -->

<svg
   width="1024"
   height="1024"
   viewBox="0 0 270.93333 270.93333"
   version="1.1"
   id="svg5"
   inkscape:version="1.2.2 (b0a8486, 2022-12-01)"
   sodipodi:docname="koka-logo-filled-blue.svg"
   xmlns:inkscape="http://www.inkscape.org/namespaces/inkscape"
   xmlns:sodipodi="http://sodipodi.sourceforge.net/DTD/sodipodi-0.dtd"
   xmlns="http://www.w3.org/2000/svg"
   xmlns:svg="http://www.w3.org/2000/svg">
  <sodipodi:namedview
     id="namedview7"
     pagecolor="#7a7a7a"
     bordercolor="#666666"
     borderopacity="1.0"
     inkscape:pageshadow="2"
     inkscape:pageopacity="0"
     inkscape:pagecheckerboard="true"
     inkscape:document-units="px"
     showgrid="false"
     units="px"
     height="1024px"
     width="1024px"
     inkscape:zoom="0.74208052"
     inkscape:cx="287.70463"
     inkscape:cy="503.31465"
     inkscape:window-width="1474"
     inkscape:window-height="907"
     inkscape:window-x="62"
     inkscape:window-y="25"
     inkscape:window-maximized="1"
     inkscape:current-layer="layer1"
     showguides="false"
     inkscape:showpageshadow="2"
     inkscape:deskcolor="#7a7a7a" />
  <defs
     id="defs2" />
  <g
     inkscape:label="Main"
     inkscape:groupmode="layer"
     id="layer1"
     style="display:inline">
    <circle
       style="display:inline;fill:#ffffff;fill-opacity:1;stroke-width:12.2272;stroke-linecap:round;stroke-linejoin:round;stroke-opacity:0.99997;opacity:0"
       id="path2300"
       cx="135.73125"
       cy="135.46666"
       r="135.46666"
       inkscape:label="background" />
    <path
       style="display:inline;fill:#3582a3;stroke-width:0.331308;fill-opacity:1"
       d="M 128.85204,265.48061 C 101.16615,264.05174 75.816397,254.35005 53.571409,236.66969 48.311476,232.48908 38.192371,222.30619 33.75224,216.72556 8.2415439,184.66223 -0.68088015,143.38024 9.2686996,103.44591 19.029114,64.27082 47.471311,31.23123 85.046409,15.419497 125.14173,-1.4527545 171.52744,2.967476 207.60718,27.09867 c 8.08021,5.404279 14.37666,10.667244 21.34337,17.840085 30.01506,30.903152 42.61549,74.019315 34.06885,116.576815 -9.8316,48.95586 -47.64681,88.3591 -96.27885,100.32203 -12.22227,3.00655 -25.4944,4.28267 -37.88851,3.64301 z m 13.23616,-18.90899 c 5.61609,-0.38997 11.09238,-1.09797 15.52851,-2.00757 3.9791,-0.81589 11.6809,-2.90614 12.04461,-3.26887 0.38586,-0.38482 -1.37766,-3.74867 -3.96313,-7.55954 -6.06533,-8.94003 -19.44182,-25.69267 -33.84404,-42.38604 -6.1071,-7.07864 -18.09715,-19.24004 -21.36727,-21.67263 -4.54958,-3.38436 -8.10645,-4.60981 -8.62513,-2.9716 -0.61412,1.93964 1.15322,73.60922 1.84724,74.90915 0.50197,0.94024 10.94587,3.40872 18.19408,4.30027 7.60509,0.93545 13.43893,1.12528 20.18513,0.65683 z M 77.706483,229.2477 c 0.223502,-1.06147 0.785739,-24.48932 1.215986,-50.66901 0.417267,-25.39008 0.214069,-82.358407 -0.339573,-95.20136 -0.745712,-17.298477 -2.085811,-39.135766 -2.519091,-41.049364 -0.09294,-0.410494 -0.277834,-0.742421 -0.410864,-0.737615 -0.13303,0.0048 -1.980986,1.236285 -4.106564,2.736625 C 48.50791,60.588654 32.294326,85.49009 26.789975,113.06556 c -1.85474,9.2918 -2.007946,11.00788 -1.998945,22.39056 0.009,11.36161 0.252991,13.95717 2.167296,23.05398 2.044076,9.7135 4.935823,17.79386 9.853007,27.5321 7.025908,13.91448 17.061341,26.28809 29.334424,36.16914 3.09247,2.48975 10.665277,7.78271 11.134972,7.78271 0.147732,0 0.339322,-0.33586 0.425754,-0.74635 z m 121.907177,-2.8891 c 8.30516,-5.73532 17.11778,-14.11753 23.59243,-22.4402 5.78017,-7.42999 12.06429,-18.45572 15.78133,-27.68903 3.06514,-7.61391 5.48723,-16.86997 6.89356,-26.34377 0.75376,-5.07776 0.8607,-23.06763 0.16662,-28.02967 -1.35202,-9.6657 -3.96202,-19.82186 -7.07164,-27.517488 -10.36868,-25.660151 -28.80073,-45.981036 -52.71208,-58.113768 -12.0404,-6.109357 -22.47353,-9.421089 -36.06853,-11.449048 -5.07641,-0.757246 -23.01925,-0.862985 -27.96139,-0.16478 -8.24964,1.165476 -18.05352,3.464111 -18.51057,4.34002 -0.75606,1.448937 -1.66097,54.022952 -1.66903,96.968534 l -0.006,29.43944 0.90999,-0.003 c 3.70988,-0.0131 13.38333,-7.84527 32.5113,-26.32258 13.12791,-12.68134 21.84201,-22.42381 24.36978,-27.24568 0.66949,-1.27709 1.37922,-2.431649 1.57718,-2.565688 0.43065,-0.291608 31.01573,-0.342171 31.76871,-0.05252 0.78617,0.30242 0.65087,0.824986 -0.79373,3.065528 -5.16407,8.00942 -35.12665,33.68641 -57.66647,49.41846 -3.93003,2.74303 -4.88084,3.55797 -4.88084,4.18339 0,0.59294 1.07659,1.67419 4.54993,4.5696 14.95569,12.46723 37.82447,37.14247 58.1144,62.70499 2.13596,2.69101 4.07227,4.89274 4.3029,4.89274 0.23063,0 1.49139,-0.74032 2.80168,-1.64517 z"
       id="path2561"
       inkscape:label="Koka" />
  </g>
</svg>
